<?xml version="1.0" standalone="no"?>
<!DOCTYPE svg PUBLIC "-//W3C//DTD SVG 20010904//EN"
 "http://www.w3.org/TR/2001/REC-SVG-20010904/DTD/svg10.dtd">
<svg version="1.0" xmlns="http://www.w3.org/2000/svg"
 width="256.000000pt" height="256.000000pt" viewBox="0 0 256.000000 256.000000"
 preserveAspectRatio="xMidYMid meet">

<g transform="translate(0.000000,256.000000) scale(0.100000,-0.100000)"
fill="#000000" stroke="none">
<path d="M1642 2298 c-19 -29 -51 -93 -72 -143 -44 -103 -31 -98 -170 -60 -61
17 -118 25 -160 25 -91 -2 -100 -1 -100 9 0 4 32 6 70 3 51 -3 70 -1 70 8 0 6
-14 17 -30 23 -19 7 -28 17 -25 25 4 11 -1 13 -20 8 -16 -4 -25 -2 -25 5 0 8
-17 10 -56 6 -60 -6 -98 -31 -115 -75 -5 -12 -17 -25 -26 -28 -10 -3 -39 -14
-64 -24 l-47 -18 -8 92 -9 91 -5 -101 c-3 -57 -10 -107 -17 -116 -10 -11 -9
-20 3 -43 8 -16 16 -40 18 -54 2 -15 7 -46 11 -70 10 -57 -8 -48 -24 11 -17
66 -25 74 -46 42 -17 -26 -16 -28 4 -64 29 -51 26 -61 -7 -24 -15 17 -43 39
-62 49 -19 10 -41 27 -49 37 -7 11 -19 17 -25 15 -13 -5 -80 67 -111 120 -18
31 -42 49 -52 39 -3 -2 29 -44 70 -92 l76 -87 -26 -32 -26 -33 -31 19 c-40 24
-99 24 -153 -1 -32 -14 -48 -30 -64 -64 -25 -49 -40 -58 -115 -60 -58 -1 -125
-40 -156 -91 -20 -34 -24 -96 -7 -128 12 -22 19 -83 19 -172 0 -97 61 -152
157 -142 l53 6 -6 -38 c-13 -81 50 -151 135 -151 24 0 41 -3 38 -6 -12 -12 63
-140 130 -220 36 -43 67 -77 68 -74 2 3 7 1 12 -4 5 -5 3 -6 -4 -2 -16 9 -16
-4 0 -25 12 -16 49 -39 63 -39 4 0 -5 14 -22 32 l-29 31 37 -28 37 -29 -30
-33 c-16 -19 -29 -36 -29 -39 0 -13 37 18 50 41 11 20 19 25 37 20 21 -5 28 3
24 28 0 4 6 7 15 7 10 0 14 5 10 16 -3 8 -2 13 3 10 5 -4 23 11 41 32 l31 37
-22 -42 c-30 -56 -18 -66 18 -14 44 63 47 48 7 -29 -20 -38 -40 -70 -46 -70
-5 0 -6 -4 -3 -10 3 -5 13 -10 21 -10 8 0 12 5 9 10 -3 6 -2 10 3 10 5 0 22
27 37 61 31 69 46 73 20 5 -9 -24 -14 -49 -10 -55 3 -6 -1 -14 -9 -17 -21 -8
-20 -30 0 -38 9 -4 18 -5 19 -4 1 2 10 38 20 81 21 92 33 96 15 5 -11 -54 -16
-101 -22 -178 -1 -22 -47 -289 -55 -319 -6 -23 -4 -24 10 -13 8 7 15 21 14 30
0 9 14 95 33 190 l33 174 26 -6 c14 -4 63 -9 109 -13 57 -4 82 -10 82 -19 0
-22 51 -54 88 -54 l35 0 -27 21 c-21 17 -24 24 -16 40 7 12 8 36 2 68 -10 54
-8 77 12 141 8 25 20 77 27 115 6 39 15 75 20 81 5 6 31 17 57 24 26 7 71 24
101 37 30 13 56 22 57 20 8 -8 -68 -105 -105 -135 l-41 -33 0 -94 c0 -92 -1
-95 -26 -108 -31 -16 -61 -87 -41 -99 6 -4 14 -3 17 1 3 5 32 14 65 22 33 7
62 16 65 19 8 11 51 32 55 28 3 -2 18 -77 36 -166 17 -90 34 -161 36 -158 5 5
-36 296 -43 308 -2 4 0 9 6 13 16 10 12 67 -10 131 -11 32 -19 66 -17 74 2 8
16 -25 32 -75 32 -102 33 -104 44 -86 5 7 14 10 20 7 21 -13 11 15 -31 94 -46
84 -46 114 -1 59 67 -81 117 -129 156 -149 51 -27 113 -71 181 -129 63 -54
-56 64 -153 153 -35 32 -60 61 -55 64 57 40 182 239 209 332 19 67 36 170 33
205 -2 34 0 45 11 45 8 0 41 10 75 22 55 19 75 36 196 158 98 98 149 143 187
161 51 23 52 25 53 68 l0 44 -42 -7 c-23 -4 -48 -12 -55 -18 -7 -6 -13 -8 -13
-4 0 3 -11 1 -25 -4 -14 -5 -37 -12 -51 -14 -36 -7 -97 -27 -109 -36 -18 -14
-49 -14 -77 0 -16 7 -28 16 -28 20 0 15 -86 34 -156 34 -62 1 -76 4 -88 21 -8
11 -39 47 -70 80 -31 33 -56 63 -56 66 0 4 12 15 28 25 15 9 84 62 155 117
117 91 149 127 113 127 -13 0 -118 -77 -194 -142 -38 -33 -45 -34 -67 -12 -15
15 -19 14 -52 -17 -19 -19 -55 -60 -80 -91 -24 -32 -49 -58 -54 -58 -17 0 6
33 81 114 38 43 70 85 70 93 0 12 -3 13 -13 5 -10 -8 -22 -6 -45 8 -46 28 -61
25 -78 -17 -31 -75 -77 -163 -85 -163 -11 0 0 28 42 110 18 35 32 77 32 92 0
15 4 28 9 28 5 0 7 8 4 18 -4 11 12 47 44 97 28 44 49 84 47 90 -9 26 -35 11
-65 -37z m-481 -214 c7 -9 17 -39 21 -67 5 -29 12 -74 17 -102 4 -27 12 -61
18 -75 5 -14 8 -44 5 -67 -3 -33 3 -56 27 -104 17 -34 31 -72 31 -83 0 -33
-40 -101 -67 -113 -21 -10 -30 -9 -55 10 -23 17 -43 22 -94 22 l-64 0 0 76 c0
91 -10 105 -67 93 -21 -4 -41 -8 -45 -8 -4 -1 -18 14 -32 32 -21 29 -23 38
-14 65 6 18 24 46 39 62 30 32 38 57 17 52 -14 -2 -35 111 -25 136 7 19 101
55 187 72 86 17 86 17 101 -1z m251 -15 c42 -12 84 -26 93 -33 15 -11 15 -15
0 -48 -13 -27 -22 -34 -37 -30 -19 5 -19 4 0 -29 12 -23 31 -38 56 -46 20 -7
49 -26 62 -43 25 -29 74 -42 74 -20 0 6 -7 10 -16 10 -10 0 1 14 27 34 31 23
49 31 60 26 8 -5 42 -43 74 -84 33 -42 64 -76 70 -76 5 0 3 -5 -5 -10 -16 -11
-151 -7 -332 11 -59 6 -112 8 -118 4 -19 -12 -10 -40 18 -53 45 -20 74 -106
35 -101 -41 4 -85 -15 -110 -47 -14 -19 -34 -34 -44 -34 -10 0 -23 -8 -28 -17
-9 -16 -10 -14 -11 9 0 15 5 30 11 34 11 6 9 51 -5 114 -3 14 -10 47 -15 75
-5 27 -14 51 -20 53 -6 2 -11 27 -11 55 0 29 -7 60 -15 70 -7 11 -11 26 -7 35
5 13 8 10 13 -13 l7 -30 1 31 c2 51 -20 148 -37 168 -17 18 -15 19 58 12 41
-3 110 -16 152 -27z m208 -112 c0 -7 -14 -28 -31 -47 -33 -38 -33 -35 -4 23
19 37 35 48 35 24z m-890 -172 c-18 -22 -4 -32 18 -12 10 10 33 17 50 17 29 0
30 -2 25 -34 -4 -25 1 -43 22 -76 23 -37 30 -41 53 -35 75 19 77 17 80 -64 2
-41 -1 -78 -6 -83 -5 -5 -31 4 -62 24 -46 29 -62 33 -120 33 -56 0 -73 -4
-108 -27 -23 -15 -51 -45 -63 -66 -26 -45 -84 -71 -108 -47 -18 18 -2 130 34
235 13 41 25 86 25 99 0 14 19 47 47 78 l46 55 40 -41 c35 -34 39 -42 27 -56z
m-174 41 c15 -23 14 -27 -8 -58 -12 -18 -24 -35 -25 -37 -1 -2 -13 4 -27 12
-23 16 -25 16 -31 -3 -6 -19 -16 -24 -40 -21 -7 0 -9 -13 -7 -33 3 -28 -1 -37
-21 -50 -13 -9 -32 -14 -41 -10 -13 5 -15 1 -10 -24 8 -39 -10 -71 -47 -84
-35 -12 -39 -33 -5 -24 32 8 88 -31 100 -69 17 -58 19 -61 23 -37 7 39 81 21
102 -25 12 -25 34 -23 25 2 -8 21 43 39 73 26 14 -7 24 -7 28 -1 4 6 -1 13 -9
16 -23 9 -20 19 15 59 78 88 184 95 269 18 l40 -35 43 21 c24 12 53 21 65 21
24 0 75 -21 104 -42 13 -10 22 -9 41 1 37 20 57 10 72 -33 12 -34 12 -42 -2
-60 -16 -22 -17 -22 -55 -3 -23 12 -48 17 -63 13 -30 -8 -67 -45 -58 -59 4 -6
10 -4 17 5 32 43 82 43 128 0 27 -25 27 -26 10 -45 -17 -19 -16 -20 11 -13 37
9 67 -1 67 -22 0 -10 7 -28 17 -41 15 -23 15 -25 -3 -38 -19 -14 -82 -14 -115
1 -11 5 -18 1 -21 -12 -12 -46 -172 -55 -229 -13 -30 23 -53 21 -31 -1 17 -17
15 -23 -13 -36 -32 -15 -72 -15 -80 -2 -11 17 -23 11 -45 -24 -12 -20 -40 -44
-66 -57 -40 -19 -50 -20 -85 -10 -21 6 -51 22 -66 36 -25 21 -26 24 -10 30 36
14 15 25 -36 19 -35 -4 -62 -2 -76 6 -27 14 -39 6 -22 -14 14 -17 -4 -26 -54
-26 -49 0 -85 35 -92 89 -6 47 -4 48 50 26 31 -13 17 9 -26 40 -23 17 -46 41
-52 53 -12 27 -31 23 -27 -6 3 -20 -1 -22 -43 -22 -39 0 -52 5 -77 30 -28 28
-30 35 -26 81 3 27 12 57 22 67 21 24 8 37 -16 15 -17 -15 -18 -15 -18 15 0
17 5 32 12 34 8 3 5 13 -10 33 -31 39 -30 104 3 143 29 34 82 62 119 62 23 0
26 -3 20 -25 -9 -35 6 -31 39 10 22 28 35 35 62 35 19 0 35 5 35 10 0 6 -7 10
-15 10 -19 0 -19 4 0 40 21 40 60 59 122 60 45 0 55 -4 69 -24z m694 -106 c0
-13 -1 -13 -10 0 -5 8 -10 22 -10 30 0 13 1 13 10 0 5 -8 10 -22 10 -30z
m1230 5 c0 -9 -98 -54 -104 -48 -14 14 -4 23 42 37 53 16 62 18 62 11z m-2010
-68 c-16 -35 -36 -93 -46 -128 l-17 -65 -23 23 c-13 13 -28 23 -34 23 -7 0 -5
9 4 22 9 12 16 33 16 45 0 13 5 23 10 23 19 0 60 49 60 71 0 22 25 48 47 49 7
0 1 -24 -17 -63z m1622 17 c17 -9 26 -19 22 -24 -13 -12 -296 -111 -302 -106
-2 3 8 11 22 18 17 7 29 22 33 41 6 31 17 37 123 67 36 10 66 18 68 19 2 1 17
-6 34 -15z m-382 -4 c-19 -13 -30 -13 -30 0 0 6 10 10 23 10 18 0 19 -2 7 -10z
m570 -34 c0 -20 -46 -51 -93 -64 -28 -8 -46 -7 -69 2 l-31 13 59 22 c32 12 68
26 79 31 30 13 55 12 55 -4z m-846 -145 c-8 -68 8 -145 42 -204 21 -38 22 -43
8 -70 -15 -28 -16 -28 -35 -11 -10 9 -31 42 -46 73 -21 45 -27 71 -27 131 -1
110 7 131 56 139 4 0 5 -25 2 -58z m-84 -57 c0 -38 -3 -45 -17 -42 -22 4 -31
67 -11 79 24 15 28 10 28 -37z m10 -115 c7 -27 10 -52 8 -54 -10 -10 -67 21
-76 41 -8 17 -6 26 11 43 32 32 44 26 57 -30z m393 39 c8 -22 -21 -65 -58 -87
-47 -27 -63 -27 -71 4 -11 46 26 76 118 94 3 0 8 -5 11 -11z m223 -105 c-3
-32 -11 -81 -18 -110 l-11 -52 -29 24 c-16 14 -39 25 -50 25 -18 0 -18 2 8 22
38 29 46 38 67 68 36 51 17 52 -123 5 -62 -21 -98 -29 -90 -21 15 15 214 94
239 95 11 1 12 -11 7 -56z m-572 -38 c19 -28 20 -35 6 -35 -16 0 -51 40 -45
50 10 16 22 12 39 -15z m505 9 c-15 -18 -94 -74 -105 -74 -15 0 52 63 81 76
39 17 40 17 24 -2z m-495 -156 l-47 -93 -18 65 -19 65 23 17 c21 17 68 35 95
37 7 1 -7 -37 -34 -91z m494 29 c12 -11 22 -26 22 -32 0 -41 -199 -285 -232
-285 -8 0 -27 14 -43 30 -16 17 -23 30 -17 30 7 0 12 5 12 11 0 31 -107 -29
-134 -75 -16 -28 -16 -28 4 -23 17 4 20 0 20 -28 0 -29 -4 -34 -43 -49 -23 -9
-46 -16 -50 -16 -4 0 -7 36 -7 79 l0 80 48 40 c26 22 63 67 81 98 32 55 39 61
145 113 120 61 152 65 194 27z m-614 8 c27 -28 30 -79 7 -146 -18 -50 -20 -67
-11 -94 19 -59 15 -101 -13 -139 -26 -33 -26 -38 -16 -86 15 -72 8 -85 -33
-60 -18 11 -40 20 -48 20 -8 0 -48 12 -87 26 l-73 27 0 39 c0 33 3 39 16 34
10 -4 14 -1 12 6 -3 7 -20 14 -38 16 -19 2 -46 12 -61 23 -31 22 -66 24 -104
7 -27 -12 -35 -34 -9 -24 15 6 15 4 3 -11 -7 -10 -24 -30 -38 -45 l-24 -27
-39 30 c-32 26 -37 35 -32 57 4 15 13 34 20 43 20 23 18 29 -27 75 -34 35 -40
47 -35 68 5 21 12 26 37 26 44 0 91 23 123 61 24 28 34 33 66 30 21 -1 53 5
70 14 27 14 39 15 80 5 53 -13 133 -2 180 25 33 19 55 19 74 0z m-644 -135 c0
-5 -2 -10 -4 -10 -3 0 -8 5 -11 10 -3 6 -1 10 4 10 6 0 11 -4 11 -10z"/>
<path d="M955 1380 c-9 -10 -18 -32 -19 -48 -1 -16 -6 -35 -13 -43 -21 -25
-25 -63 -9 -84 15 -19 15 -18 9 13 -5 27 -1 38 23 63 15 16 22 29 16 29 -22 0
-13 40 14 65 18 17 22 25 12 25 -8 0 -23 -9 -33 -20z"/>
<path d="M400 1310 c8 -5 23 -10 33 -10 26 0 44 -46 28 -72 -17 -27 -4 -37 14
-11 8 12 25 24 38 26 19 4 18 4 -5 6 -21 1 -28 6 -28 20 0 25 -36 51 -70 51
-20 0 -22 -2 -10 -10z"/>
<path d="M1050 1275 c0 -14 5 -25 10 -25 6 0 10 -14 10 -30 0 -56 60 -95 114
-74 30 12 16 22 -23 17 -32 -4 -41 -2 -55 18 -9 13 -16 34 -16 46 0 13 -4 23
-10 23 -5 0 -10 11 -10 25 0 14 -4 25 -10 25 -5 0 -10 -11 -10 -25z"/>
<path d="M676 1205 c9 -38 -3 -73 -33 -88 -17 -9 -22 -17 -14 -21 17 -11 71
48 71 78 0 23 2 25 26 16 32 -12 89 -3 105 16 18 22 5 26 -27 9 -36 -18 -62
-19 -94 0 -35 20 -41 18 -34 -10z"/>
<path d="M1659 715 c33 -66 61 -93 61 -61 0 7 -18 33 -40 57 l-41 44 20 -40z"/>
<path d="M821 644 c-7 -8 -10 -18 -7 -21 7 -7 36 16 36 28 0 13 -13 10 -29 -7z"/>
<path d="M517 417 c-87 -84 -158 -155 -157 -159 1 -18 22 -6 52 30 18 20 58
62 89 92 68 68 184 190 178 190 -2 0 -75 -69 -162 -153z"/>
<path d="M1631 244 c0 -11 3 -14 6 -6 3 7 2 16 -1 19 -3 4 -6 -2 -5 -13z"/>
</g>
</svg>
